<svg id="Слой_1" data-name="Слой 1" xmlns="http://www.w3.org/2000/svg" viewBox="0 0 227.52 217.44"><defs><style>.cls-1{font-size:35.76px;fill:#ffa420;font-family:RAYDIS-Bold, RAYDIS;font-weight:700;}.cls-2{letter-spacing:-0.02em;}.cls-3{letter-spacing:-0.01em;}.cls-4{letter-spacing:-0.04em;}.cls-5{fill:#f58d0d;}</style></defs><text class="cls-1" transform="matrix(0.99, 0.17, -0.17, 0.99, 47.6, 142.72)"><tspan class="cls-2">MO</tspan><tspan class="cls-3" x="68.27" y="0">L</tspan><tspan class="cls-4" x="92.7" y="0">L</tspan><tspan x="116.05" y="0">A</tspan></text><path class="cls-5" d="M29,127.2l13.65,2.33q5.41-8.18,10.81-16.37l25.91,4.36q5.17-19.11,10.34-38.23L94.09,79l4.41,41.72L112,123,105.68,66.7,78.27,68.25q-4.42,16.43-8.83,32.83L48.88,98.22Z"/><path class="cls-5" d="M76.81,53.31a9.86,9.86,0,0,1,19.55-1.43c1.07,5.73-3.46,12-9.54,12.08A10.2,10.2,0,0,1,76.81,53.31Z"/><path class="cls-5" d="M71,78.89,65.48,96.4,49.82,93.72l4.74-7,5.92.61c1.2-2.67,2.41-5.35,3.61-8Z"/><path class="cls-5" d="M99.79,104.56q-.66-6.63-1.31-13.25l-13.69.75q-1.16,4.86-2.3,9.7Z"/></svg>